<svg xmlns="http://www.w3.org/2000/svg" xmlns:xlink="http://www.w3.org/1999/xlink" width="1200" zoomAndPan="magnify" viewBox="0 0 900 899.99999" height="1200" preserveAspectRatio="xMidYMid meet" version="1.0"><defs><g/><clipPath id="82ce3ca8f1"><rect x="0" width="301" y="0" height="287"/></clipPath><clipPath id="d9272eae31"><rect x="0" width="283" y="0" height="138"/></clipPath><clipPath id="5d26ec29c1"><path d="M 0 88 L 319 88 L 319 879.921875 L 0 879.921875 Z M 0 88 " clip-rule="nonzero"/></clipPath><clipPath id="cb95a6e406"><rect x="0" width="319" y="0" height="792"/></clipPath><clipPath id="af58eb893c"><path d="M 581 0.558594 L 900 0.558594 L 900 793 L 581 793 Z M 581 0.558594 " clip-rule="nonzero"/></clipPath><clipPath id="9d4991ae96"><rect x="0" width="319" y="0" height="793"/></clipPath><clipPath id="ed74e79c15"><rect x="0" width="900" y="0" height="880"/></clipPath></defs><g transform="matrix(1, 0, 0, 1, 0, 4)"><g clip-path="url(#ed74e79c15)"><g transform="matrix(1, 0, 0, 1, 305, 220)"><g clip-path="url(#82ce3ca8f1)"><g fill="#000000" fill-opacity="1"><g transform="translate(0.475402, 229.446454)"><g><path d="M 15.75 -180.015625 L 130.421875 -180.015625 L 130.421875 -150.109375 L 49.328125 -150.109375 L 49.328125 -107.0625 L 118.875 -107.0625 L 118.875 -77.15625 L 49.328125 -77.15625 L 49.328125 -29.921875 L 132 -29.921875 L 132 0 L 15.75 0 Z M 15.75 -180.015625 "/></g></g></g><g fill="#000000" fill-opacity="1"><g transform="translate(144.009833, 229.446454)"><g><path d="M 15.75 -180.015625 L 93.15625 -180.015625 C 102.601562 -180.015625 111.046875 -178.132812 118.484375 -174.375 C 125.921875 -170.613281 131.738281 -165.363281 135.9375 -158.625 C 140.132812 -151.894531 142.234375 -144.15625 142.234375 -135.40625 C 142.234375 -125.4375 139.648438 -116.820312 134.484375 -109.5625 C 129.328125 -102.300781 122.722656 -97.269531 114.671875 -94.46875 L 114.671875 -93.421875 C 123.953125 -90.617188 131.566406 -85.191406 137.515625 -77.140625 C 143.460938 -69.097656 146.4375 -59.476562 146.4375 -48.28125 C 146.4375 -38.488281 144.03125 -29.960938 139.21875 -22.703125 C 134.40625 -15.441406 127.972656 -9.84375 119.921875 -5.90625 C 111.878906 -1.96875 102.957031 0 93.15625 0 L 15.75 0 Z M 83.96875 -107.0625 C 91.664062 -107.0625 97.570312 -109.160156 101.6875 -113.359375 C 105.800781 -117.566406 107.859375 -122.90625 107.859375 -129.375 C 107.859375 -136.019531 105.84375 -141.132812 101.8125 -144.71875 C 97.789062 -148.3125 92.367188 -150.109375 85.546875 -150.109375 L 49.328125 -150.109375 L 49.328125 -107.0625 Z M 87.65625 -29.921875 C 94.820312 -29.921875 100.675781 -31.882812 105.21875 -35.8125 C 109.769531 -39.75 112.046875 -45.304688 112.046875 -52.484375 C 112.046875 -59.828125 109.816406 -65.816406 105.359375 -70.453125 C 100.898438 -75.097656 94.472656 -77.421875 86.078125 -77.421875 L 49.328125 -77.421875 L 49.328125 -29.921875 Z M 87.65625 -29.921875 "/></g></g></g></g></g><g transform="matrix(1, 0, 0, 1, 314, 491)"><g clip-path="url(#d9272eae31)"><g fill="#000000" fill-opacity="1"><g transform="translate(0.644295, 109.321938)"><g><path d="M 50.484375 0 L 21.65625 0 C 18.625 0 16.070312 -1.03125 14 -3.09375 C 13.03125 -4.070312 12.257812 -5.210938 11.6875 -6.515625 C 11.113281 -7.816406 10.828125 -9.203125 10.828125 -10.671875 L 10.828125 -96.90625 C 10.828125 -98.375 11.113281 -99.757812 11.6875 -101.0625 C 12.257812 -102.363281 13.03125 -103.503906 14 -104.484375 C 16.070312 -106.546875 18.625 -107.578125 21.65625 -107.578125 L 50.484375 -107.578125 C 55.972656 -107.578125 61.144531 -106.640625 66 -104.765625 C 70.863281 -102.890625 75.113281 -100.191406 78.75 -96.671875 C 82.5 -93.085938 85.40625 -88.78125 87.46875 -83.75 C 89.53125 -78.726562 90.5625 -73.207031 90.5625 -67.1875 L 90.5625 -40.46875 C 90.5625 -34.445312 89.53125 -28.925781 87.46875 -23.90625 C 85.40625 -18.882812 82.5 -14.582031 78.75 -11 C 75.113281 -7.46875 70.863281 -4.75 66 -2.84375 C 61.144531 -0.945312 55.972656 0 50.484375 0 Z M 32.5 -21.65625 L 50.484375 -21.65625 C 55.753906 -21.65625 59.988281 -23.097656 63.1875 -25.984375 C 66.882812 -29.234375 68.734375 -34.007812 68.734375 -40.3125 L 68.734375 -67.34375 C 68.734375 -73.644531 66.882812 -78.425781 63.1875 -81.6875 C 60.039062 -84.445312 55.804688 -85.828125 50.484375 -85.828125 L 32.5 -85.828125 Z M 32.5 -21.65625 "/></g></g></g><g fill="#000000" fill-opacity="1"><g transform="translate(99.50568, 109.321938)"><g><path d="M 69.46875 0 L 20.84375 0 C 17.914062 -0.21875 15.554688 -1.332031 13.765625 -3.34375 C 11.804688 -5.40625 10.828125 -7.847656 10.828125 -10.671875 L 10.828125 -96.75 C 10.828125 -99.789062 11.859375 -102.34375 13.921875 -104.40625 C 16.046875 -106.519531 18.625 -107.578125 21.65625 -107.578125 L 69.46875 -107.578125 C 72.445312 -107.578125 75 -106.519531 77.125 -104.40625 C 79.132812 -102.28125 80.140625 -99.726562 80.140625 -96.75 C 80.140625 -93.707031 79.132812 -91.128906 77.125 -89.015625 C 75 -86.890625 72.445312 -85.828125 69.46875 -85.828125 L 32.5 -85.828125 L 32.5 -65.390625 L 60.1875 -65.390625 C 63.21875 -65.390625 65.769531 -64.382812 67.84375 -62.375 C 69.957031 -60.257812 71.015625 -57.707031 71.015625 -54.71875 C 71.015625 -51.789062 69.957031 -49.296875 67.84375 -47.234375 C 65.832031 -45.273438 63.28125 -44.296875 60.1875 -44.296875 L 32.5 -44.296875 L 32.5 -21.578125 L 69.46875 -21.578125 C 72.445312 -21.578125 75 -20.519531 77.125 -18.40625 C 79.132812 -16.289062 80.140625 -13.710938 80.140625 -10.671875 C 80.140625 -7.578125 79.132812 -5.023438 77.125 -3.015625 C 75.0625 -1.003906 72.507812 0 69.46875 0 Z M 69.46875 0 "/></g></g></g><g fill="#000000" fill-opacity="1"><g transform="translate(183.057392, 109.321938)"><g><path d="M 49.265625 0.984375 L 48.859375 0.984375 C 46.796875 0.984375 44.878906 0.382812 43.109375 -0.8125 C 41.347656 -2.007812 40.007812 -3.640625 39.09375 -5.703125 L 3.34375 -92.921875 C 2.738281 -94.546875 2.4375 -95.929688 2.4375 -97.078125 C 2.4375 -99.835938 3.46875 -102.304688 5.53125 -104.484375 C 7.757812 -106.710938 10.367188 -107.828125 13.359375 -107.828125 C 15.472656 -107.828125 17.453125 -107.226562 19.296875 -106.03125 C 21.140625 -104.832031 22.523438 -103.203125 23.453125 -101.140625 L 49.265625 -38.03125 L 75.078125 -101.140625 C 75.953125 -103.203125 77.285156 -104.816406 79.078125 -105.984375 C 80.867188 -107.148438 82.847656 -107.734375 85.015625 -107.734375 C 88.003906 -107.734375 90.582031 -106.648438 92.75 -104.484375 C 94.707031 -102.367188 95.6875 -99.953125 95.6875 -97.234375 C 95.6875 -96.035156 95.390625 -94.597656 94.796875 -92.921875 L 59.53125 -6.671875 C 59.414062 -6.128906 59.171875 -5.585938 58.796875 -5.046875 C 57.867188 -3.148438 56.550781 -1.6875 54.84375 -0.65625 C 53.132812 0.375 51.273438 0.921875 49.265625 0.984375 Z M 49.265625 0.984375 "/></g></g></g></g></g><g clip-path="url(#5d26ec29c1)"><g transform="matrix(1, 0, 0, 1, 0, 88)"><g clip-path="url(#cb95a6e406)"><g fill="#000000" fill-opacity="1"><g transform="translate(0.0000048, 547.405045)"><g><path d="M 30.59375 -185.203125 L 30.59375 -203.453125 L 266.796875 -345.1875 L 266.796875 -298.46875 L 90.1875 -194.328125 L 266.796875 -89.109375 L 266.796875 -42.40625 Z M 30.59375 -185.203125 "/></g></g></g></g></g></g><g clip-path="url(#af58eb893c)"><g transform="matrix(1, 0, 0, 1, 581, 0.00000000000010747)"><g clip-path="url(#9d4991ae96)"><g fill="#000000" fill-opacity="1"><g transform="translate(318.993511, 245.15386)"><g><path d="M -30.59375 185.203125 L -30.59375 203.453125 L -266.796875 345.1875 L -266.796875 298.46875 L -90.1875 194.328125 L -266.796875 89.109375 L -266.796875 42.40625 Z M -30.59375 185.203125 "/></g></g></g></g></g></g></g></g></svg>